<mxfile host="Electron" agent="Mozilla/5.0 (X11; Linux x86_64) AppleWebKit/537.36 (KHTML, like Gecko) draw.io/26.0.16 Chrome/132.0.6834.196 Electron/34.2.0 Safari/537.36" version="26.0.16">
  <diagram name="Page-1" id="dCp0Z4waHlUfVY6Fhiss">
    <mxGraphModel dx="633" dy="381" grid="1" gridSize="5" guides="1" tooltips="1" connect="1" arrows="1" fold="1" page="0" pageScale="1" pageWidth="3300" pageHeight="4681" background="#F7F7F7" math="0" shadow="1">
      <root>
        <mxCell id="0" />
        <mxCell id="1" parent="0" />
        <mxCell id="JyALi0fK_2BL6Teqb9gI-1" value="&lt;font style=&quot;font-size: 10px;&quot;&gt;Package.json&lt;/font&gt;" style="rounded=0;whiteSpace=wrap;html=1;" parent="1" vertex="1">
          <mxGeometry x="50" y="50" width="80" height="30" as="geometry" />
        </mxCell>
        <mxCell id="JyALi0fK_2BL6Teqb9gI-2" value="" style="rounded=0;whiteSpace=wrap;html=1;" parent="1" vertex="1">
          <mxGeometry x="190" y="40" width="280" height="410" as="geometry" />
        </mxCell>
        <mxCell id="JyALi0fK_2BL6Teqb9gI-3" value="Server" style="text;html=1;align=center;verticalAlign=middle;whiteSpace=wrap;rounded=0;fontSize=10;" parent="1" vertex="1">
          <mxGeometry x="190" y="40" width="60" height="30" as="geometry" />
        </mxCell>
        <mxCell id="JyALi0fK_2BL6Teqb9gI-4" value="" style="rounded=0;whiteSpace=wrap;html=1;" parent="1" vertex="1">
          <mxGeometry x="1160" y="35" width="140" height="420" as="geometry" />
        </mxCell>
        <mxCell id="JyALi0fK_2BL6Teqb9gI-5" value="Frontend" style="text;html=1;align=center;verticalAlign=middle;whiteSpace=wrap;rounded=0;" parent="1" vertex="1">
          <mxGeometry x="1170" y="50" width="60" height="30" as="geometry" />
        </mxCell>
        <mxCell id="JyALi0fK_2BL6Teqb9gI-6" value="server.js" style="rounded=0;whiteSpace=wrap;html=1;fontSize=10;" parent="1" vertex="1">
          <mxGeometry x="200" y="70" width="80" height="30" as="geometry" />
        </mxCell>
        <mxCell id="JTrbYuYFS1n6ePO4l3gh-1" value="" style="rounded=0;whiteSpace=wrap;html=1;" vertex="1" parent="1">
          <mxGeometry x="300" y="70" width="90" height="135" as="geometry" />
        </mxCell>
        <mxCell id="JTrbYuYFS1n6ePO4l3gh-2" value="models" style="text;html=1;align=center;verticalAlign=middle;whiteSpace=wrap;rounded=0;fontSize=10;" vertex="1" parent="1">
          <mxGeometry x="300" y="60" width="60" height="30" as="geometry" />
        </mxCell>
        <mxCell id="JTrbYuYFS1n6ePO4l3gh-3" value="&lt;font style=&quot;font-size: 10px;&quot;&gt;user.js&lt;/font&gt;" style="rounded=0;whiteSpace=wrap;html=1;" vertex="1" parent="1">
          <mxGeometry x="310" y="85" width="70" height="30" as="geometry" />
        </mxCell>
        <mxCell id="JTrbYuYFS1n6ePO4l3gh-4" value="article.js" style="rounded=0;whiteSpace=wrap;html=1;" vertex="1" parent="1">
          <mxGeometry x="310" y="125" width="70" height="30" as="geometry" />
        </mxCell>
        <mxCell id="JTrbYuYFS1n6ePO4l3gh-5" value="category.js" style="rounded=0;whiteSpace=wrap;html=1;fontSize=10;" vertex="1" parent="1">
          <mxGeometry x="310" y="165" width="70" height="30" as="geometry" />
        </mxCell>
      </root>
    </mxGraphModel>
  </diagram>
</mxfile>
